<?xml version="1.0" encoding="UTF-8" standalone="no"?>
<!DOCTYPE svg PUBLIC "-//W3C//DTD SVG 1.1//EN" "http://www.w3.org/Graphics/SVG/1.1/DTD/svg11.dtd">
<svg width="100%" height="100%" viewBox="0 0 44 46" version="1.1" xmlns="http://www.w3.org/2000/svg" xmlns:xlink="http://www.w3.org/1999/xlink" xml:space="preserve" xmlns:serif="http://www.serif.com/" style="fill-rule:evenodd;clip-rule:evenodd;stroke-linecap:round;stroke-linejoin:round;">
    <g transform="matrix(1,0,0,1,1e-05,0)">
        <g transform="matrix(1,0,0,1,-4.16667,-2.08333)">
            <g transform="matrix(2.08333,0,0,2.08333,0,0)">
                <path d="M18.134,11C18.716,16.375 21,18 21,18L3,18C3,18 6,15.867 6,8.4C6,6.703 6.632,5.075 7.757,3.875C8.883,2.674 10.409,2 12,2C12.337,2 12.672,2.03 13,2.089" style="fill:none;fill-rule:nonzero;stroke:rgb(75,107,119);stroke-width:2px;"/>
            </g>
        </g>
        <g transform="matrix(1,0,0,1,-4.16667,-2.08333)">
            <g transform="matrix(2.08333,0,0,2.08333,0,0)">
                <path d="M19,8C20.657,8 22,6.657 22,5C22,3.343 20.657,2 19,2C17.343,2 16,3.343 16,5C16,6.657 17.343,8 19,8Z" style="fill:none;fill-rule:nonzero;stroke:rgb(249,200,40);stroke-width:2px;"/>
            </g>
        </g>
        <g transform="matrix(1,0,0,1,-4.16667,-2.08333)">
            <g transform="matrix(2.08333,0,0,2.08333,0,0)">
                <path d="M13.73,21C13.554,21.303 13.302,21.555 12.998,21.73C12.695,21.904 12.35,21.997 12,21.997C11.65,21.997 11.305,21.904 11.002,21.73C10.698,21.555 10.446,21.303 10.27,21" style="fill:none;fill-rule:nonzero;stroke:rgb(75,107,119);stroke-width:2px;"/>
            </g>
        </g>
    </g>
</svg>
