<?xml version="1.0" encoding="UTF-8" standalone="no"?>
<!DOCTYPE svg PUBLIC "-//W3C//DTD SVG 1.1//EN" "http://www.w3.org/Graphics/SVG/1.1/DTD/svg11.dtd">
<svg width="100%" height="100%" viewBox="0 0 38 40" version="1.1" xmlns="http://www.w3.org/2000/svg" xmlns:xlink="http://www.w3.org/1999/xlink" xml:space="preserve" xmlns:serif="http://www.serif.com/" style="fill-rule:evenodd;clip-rule:evenodd;stroke-linecap:round;stroke-linejoin:round;">
    <g transform="matrix(1,0,0,1,-6.25,-3.16667)">
        <g transform="matrix(2.08333,0,0,2.08333,-1,0)">
            <path d="M21,2L20,3" style="fill:none;fill-rule:nonzero;stroke:rgb(237,201,84);stroke-width:0.96px;"/>
        </g>
        <g transform="matrix(2.08333,0,0,2.08333,1,0)">
            <path d="M3,2L4,3" style="fill:none;fill-rule:nonzero;stroke:rgb(237,201,84);stroke-width:0.96px;"/>
        </g>
        <g transform="matrix(2.08333,0,0,2.08333,-1,0)">
            <path d="M21,16L20,15" style="fill:none;fill-rule:nonzero;stroke:rgb(237,201,84);stroke-width:0.96px;"/>
        </g>
        <g transform="matrix(2.08333,0,0,2.08333,1,0)">
            <path d="M3,16L4,15" style="fill:none;fill-rule:nonzero;stroke:rgb(237,201,84);stroke-width:0.96px;"/>
        </g>
        <g transform="matrix(2.08333,0,0,2.08333,0,-1)">
            <path d="M9,18L15,18" style="fill:none;fill-rule:nonzero;stroke:rgb(75,107,119);stroke-width:0.96px;"/>
        </g>
        <g transform="matrix(2.08333,0,0,2.08333,0,-2)">
            <path d="M10,21L14,21" style="fill:none;fill-rule:nonzero;stroke:rgb(75,107,119);stroke-width:0.96px;"/>
        </g>
        <g transform="matrix(2.08333,0,0,2.08333,0,0)">
            <path d="M12,3C8,3 5.952,4.95 6,8C6.023,9.487 6.5,10.5 7.5,11.5C8.5,12.5 9,13 9,15L15,15C15,13 15.5,12.5 16.5,11.5L16.5,11.5C17.5,10.5 17.977,9.487 18,8C18.048,4.95 16,3 12,3Z" style="fill:none;fill-rule:nonzero;stroke:rgb(237,201,84);stroke-width:0.96px;"/>
        </g>
    </g>
</svg>
