<?xml version="1.0" encoding="UTF-8" standalone="no"?>
<!DOCTYPE svg PUBLIC "-//W3C//DTD SVG 1.1//EN" "http://www.w3.org/Graphics/SVG/1.1/DTD/svg11.dtd">
<svg width="100%" height="100%" viewBox="0 0 176 176" version="1.1" xmlns="http://www.w3.org/2000/svg" xmlns:xlink="http://www.w3.org/1999/xlink" xml:space="preserve" xmlns:serif="http://www.serif.com/" style="fill-rule:evenodd;clip-rule:evenodd;stroke-linejoin:round;stroke-miterlimit:2;">
    <g transform="matrix(1,0,0,1,-193.561,-265.432)">
        <g transform="matrix(1.02188,0,0,1.02188,-4.23583,-9.64069)">
            <rect x="193.561" y="269.182" width="171.36" height="171.36" style="fill:rgb(75,107,119);"/>
        </g>
        <g transform="matrix(1,0,0,1,-14.2307,3.48676)">
            <g transform="matrix(96,0,0,96,219.597,382.006)">
                <path d="M0.083,-0L0.083,-0.7L0.155,-0.7L0.416,-0.149L0.676,-0.7L0.748,-0.7L0.748,-0L0.702,-0L0.702,-0.656L0.416,-0.05L0.129,-0.654L0.129,-0L0.083,-0Z" style="fill:white;fill-rule:nonzero;"/>
            </g>
            <g transform="matrix(96,0,0,96,299.373,382.006)">
                <path d="M0.407,0.011C0.356,0.011 0.309,0.002 0.266,-0.017C0.222,-0.036 0.184,-0.062 0.152,-0.095C0.119,-0.128 0.094,-0.166 0.076,-0.21C0.057,-0.253 0.048,-0.3 0.048,-0.35C0.048,-0.4 0.057,-0.447 0.076,-0.491C0.094,-0.534 0.119,-0.573 0.152,-0.606C0.184,-0.639 0.222,-0.664 0.266,-0.683C0.309,-0.702 0.356,-0.711 0.407,-0.711C0.442,-0.711 0.475,-0.707 0.508,-0.699C0.54,-0.691 0.57,-0.679 0.599,-0.663C0.628,-0.647 0.654,-0.627 0.677,-0.603L0.647,-0.568C0.618,-0.599 0.583,-0.624 0.54,-0.642C0.497,-0.659 0.452,-0.668 0.407,-0.668C0.362,-0.668 0.321,-0.66 0.284,-0.644C0.246,-0.627 0.213,-0.604 0.185,-0.576C0.156,-0.547 0.134,-0.513 0.119,-0.475C0.103,-0.436 0.095,-0.395 0.095,-0.35C0.095,-0.305 0.103,-0.264 0.119,-0.226C0.134,-0.187 0.156,-0.154 0.185,-0.125C0.213,-0.095 0.246,-0.073 0.284,-0.057C0.321,-0.04 0.362,-0.032 0.407,-0.032C0.452,-0.032 0.497,-0.041 0.54,-0.059C0.583,-0.077 0.618,-0.101 0.647,-0.132L0.677,-0.097C0.654,-0.073 0.628,-0.053 0.599,-0.037C0.57,-0.021 0.54,-0.009 0.508,-0.001C0.475,0.007 0.442,0.011 0.407,0.011Z" style="fill:white;fill-rule:nonzero;"/>
            </g>
            <g transform="matrix(96,0,0,96,368.877,382.006)">
            </g>
        </g>
    </g>
</svg>
