<?xml version="1.0" encoding="UTF-8" standalone="no"?>
<!DOCTYPE svg PUBLIC "-//W3C//DTD SVG 1.1//EN" "http://www.w3.org/Graphics/SVG/1.1/DTD/svg11.dtd">
<svg width="100%" height="100%" viewBox="0 0 947 577" version="1.1" xmlns="http://www.w3.org/2000/svg" xmlns:xlink="http://www.w3.org/1999/xlink" xml:space="preserve" xmlns:serif="http://www.serif.com/" style="fill-rule:evenodd;clip-rule:evenodd;stroke-linecap:round;stroke-linejoin:round;stroke-miterlimit:1.5;">
    <g transform="matrix(1,0,0,1,-344.282,-410.542)">
        <g transform="matrix(1.33112,0,0,1.33112,231.697,-174.871)">
            <circle cx="355.772" cy="656.477" r="215.935" style="fill:rgb(223,234,234);stroke:rgb(75,107,119);stroke-width:1.5px;"/>
        </g>
        <g transform="matrix(1.33112,0,0,1.33112,377.697,-174.871)">
            <circle cx="355.772" cy="656.477" r="215.935" style="fill:rgb(223,234,234);stroke:rgb(75,107,119);stroke-width:1.5px;"/>
        </g>
        <g transform="matrix(1.33112,0,0,1.33112,231.697,-174.871)">
            <path d="M410.613,865.374C317.958,841.081 249.52,756.708 249.52,656.477C249.52,556.246 317.958,471.873 410.613,447.58C503.269,471.873 571.707,556.246 571.707,656.477C571.707,756.708 503.269,841.081 410.613,865.374Z" style="fill:rgb(237,201,84);stroke:rgb(75,107,119);stroke-width:1.5px;"/>
        </g>
        <g transform="matrix(1,0,0,1,323,-2.28882e-05)">
            <g transform="matrix(30,0,0,30,668.367,433.65)">
                <path d="M0.277,-0L0.03,-0.705L0.116,-0.705L0.333,-0.07L0.298,-0.07L0.519,-0.705L0.585,-0.705L0.803,-0.07L0.772,-0.07L0.99,-0.705L1.072,-0.705L0.825,-0L0.752,-0L0.54,-0.61L0.562,-0.61L0.348,-0L0.277,-0Z" style="fill:rgb(51,51,51);fill-rule:nonzero;"/>
            </g>
            <g transform="matrix(30,0,0,30,701.397,433.65)">
                <path d="M0.076,-0L0.076,-0.705L0.157,-0.705L0.157,-0.378L0.144,-0.378C0.158,-0.417 0.181,-0.446 0.212,-0.466C0.244,-0.485 0.281,-0.495 0.322,-0.495C0.361,-0.495 0.393,-0.488 0.419,-0.474C0.444,-0.46 0.463,-0.439 0.476,-0.41C0.489,-0.382 0.495,-0.346 0.495,-0.303L0.495,-0L0.414,-0L0.414,-0.298C0.414,-0.328 0.41,-0.353 0.402,-0.372C0.395,-0.391 0.382,-0.405 0.366,-0.415C0.35,-0.424 0.329,-0.429 0.303,-0.429C0.274,-0.429 0.248,-0.422 0.226,-0.41C0.204,-0.397 0.187,-0.38 0.175,-0.357C0.163,-0.334 0.157,-0.307 0.157,-0.277L0.157,-0L0.076,-0Z" style="fill:rgb(51,51,51);fill-rule:nonzero;"/>
            </g>
            <g transform="matrix(30,0,0,30,718.437,433.65)">
                <path d="M0.229,0.009C0.195,0.009 0.166,0.002 0.139,-0.011C0.113,-0.024 0.092,-0.042 0.077,-0.064C0.062,-0.087 0.054,-0.112 0.054,-0.14C0.054,-0.176 0.063,-0.204 0.081,-0.225C0.099,-0.245 0.13,-0.26 0.172,-0.269C0.215,-0.278 0.273,-0.282 0.346,-0.282L0.391,-0.282L0.391,-0.229L0.347,-0.229C0.307,-0.229 0.272,-0.227 0.245,-0.225C0.218,-0.222 0.196,-0.217 0.18,-0.211C0.164,-0.205 0.153,-0.196 0.146,-0.185C0.139,-0.174 0.136,-0.161 0.136,-0.145C0.136,-0.117 0.145,-0.095 0.164,-0.078C0.183,-0.06 0.209,-0.052 0.242,-0.052C0.269,-0.052 0.292,-0.058 0.313,-0.071C0.333,-0.084 0.349,-0.101 0.361,-0.123C0.372,-0.145 0.378,-0.17 0.378,-0.199L0.378,-0.313C0.378,-0.354 0.37,-0.384 0.353,-0.403C0.336,-0.421 0.309,-0.43 0.271,-0.43C0.242,-0.43 0.214,-0.426 0.186,-0.418C0.159,-0.409 0.131,-0.396 0.102,-0.377L0.074,-0.436C0.091,-0.448 0.111,-0.459 0.133,-0.468C0.155,-0.476 0.178,-0.483 0.202,-0.488C0.226,-0.493 0.249,-0.495 0.271,-0.495C0.313,-0.495 0.348,-0.488 0.375,-0.475C0.403,-0.461 0.423,-0.441 0.436,-0.413C0.45,-0.385 0.456,-0.35 0.456,-0.306L0.456,-0L0.38,-0L0.38,-0.113L0.389,-0.113C0.384,-0.088 0.373,-0.066 0.358,-0.048C0.343,-0.03 0.325,-0.016 0.303,-0.006C0.281,0.004 0.256,0.009 0.229,0.009Z" style="fill:rgb(51,51,51);fill-rule:nonzero;"/>
            </g>
            <g transform="matrix(30,0,0,30,734.337,433.65)">
                <path d="M0.271,0.009C0.213,0.009 0.17,-0.006 0.142,-0.037C0.113,-0.067 0.099,-0.111 0.099,-0.168L0.099,-0.423L0.004,-0.423L0.004,-0.486L0.099,-0.486L0.099,-0.635L0.18,-0.635L0.18,-0.486L0.334,-0.486L0.334,-0.423L0.18,-0.423L0.18,-0.176C0.18,-0.138 0.188,-0.109 0.204,-0.09C0.22,-0.07 0.246,-0.06 0.282,-0.06C0.293,-0.06 0.303,-0.061 0.314,-0.064C0.324,-0.067 0.334,-0.07 0.343,-0.072L0.357,-0.01C0.348,-0.005 0.336,-0.001 0.319,0.003C0.302,0.007 0.286,0.009 0.271,0.009Z" style="fill:rgb(51,51,51);fill-rule:nonzero;"/>
            </g>
            <g transform="matrix(30,0,0,30,744.837,433.65)">
            </g>
            <g transform="matrix(30,0,0,30,752.547,433.65)">
                <path d="M0.132,0.18L0.223,-0.025L0.223,0.01L0.01,-0.486L0.098,-0.486L0.272,-0.06L0.245,-0.06L0.421,-0.486L0.506,-0.486L0.217,0.18L0.132,0.18Z" style="fill:rgb(51,51,51);fill-rule:nonzero;"/>
            </g>
            <g transform="matrix(30,0,0,30,767.757,433.65)">
                <path d="M0.278,0.009C0.231,0.009 0.19,-0.001 0.155,-0.022C0.121,-0.043 0.094,-0.072 0.075,-0.11C0.055,-0.148 0.046,-0.192 0.046,-0.243C0.046,-0.295 0.055,-0.339 0.075,-0.377C0.094,-0.414 0.121,-0.444 0.155,-0.464C0.19,-0.485 0.231,-0.495 0.278,-0.495C0.325,-0.495 0.366,-0.485 0.401,-0.464C0.435,-0.444 0.462,-0.414 0.481,-0.377C0.5,-0.339 0.51,-0.295 0.51,-0.243C0.51,-0.192 0.5,-0.148 0.481,-0.11C0.462,-0.072 0.435,-0.043 0.401,-0.022C0.366,-0.001 0.325,0.009 0.278,0.009ZM0.278,-0.056C0.324,-0.056 0.36,-0.073 0.387,-0.105C0.414,-0.137 0.428,-0.183 0.428,-0.244C0.428,-0.304 0.414,-0.35 0.387,-0.382C0.36,-0.414 0.324,-0.43 0.278,-0.43C0.232,-0.43 0.196,-0.414 0.169,-0.382C0.142,-0.35 0.128,-0.304 0.128,-0.244C0.128,-0.183 0.142,-0.137 0.169,-0.105C0.196,-0.073 0.232,-0.056 0.278,-0.056Z" style="fill:rgb(51,51,51);fill-rule:nonzero;"/>
            </g>
            <g transform="matrix(30,0,0,30,784.437,433.65)">
                <path d="M0.248,0.009C0.209,0.009 0.177,0.002 0.151,-0.013C0.125,-0.027 0.105,-0.049 0.092,-0.077C0.08,-0.106 0.073,-0.142 0.073,-0.184L0.073,-0.486L0.154,-0.486L0.154,-0.185C0.154,-0.157 0.158,-0.133 0.166,-0.114C0.173,-0.095 0.185,-0.081 0.202,-0.071C0.218,-0.062 0.239,-0.058 0.264,-0.058C0.292,-0.058 0.316,-0.064 0.337,-0.077C0.358,-0.089 0.374,-0.107 0.386,-0.13C0.398,-0.153 0.404,-0.18 0.404,-0.21L0.404,-0.486L0.485,-0.486L0.485,-0L0.406,-0L0.406,-0.112L0.419,-0.112C0.406,-0.073 0.384,-0.043 0.354,-0.022C0.324,-0.001 0.288,0.009 0.248,0.009Z" style="fill:rgb(51,51,51);fill-rule:nonzero;"/>
            </g>
            <g transform="matrix(30,0,0,30,801.267,433.65)">
                <path d="M0.076,-0L0.076,-0.486L0.155,-0.486L0.155,-0.371L0.145,-0.371C0.156,-0.411 0.176,-0.441 0.204,-0.461C0.232,-0.481 0.269,-0.493 0.315,-0.496L0.344,-0.499L0.35,-0.429L0.299,-0.423C0.253,-0.419 0.218,-0.404 0.194,-0.379C0.17,-0.354 0.158,-0.32 0.158,-0.277L0.158,-0L0.076,-0Z" style="fill:rgb(51,51,51);fill-rule:nonzero;"/>
            </g>
            <g transform="matrix(30,0,0,30,812.007,433.65)">
            </g>
            <g transform="matrix(30,0,0,30,819.717,433.65)">
                <path d="M0.248,0.009C0.209,0.009 0.177,0.002 0.151,-0.013C0.125,-0.027 0.105,-0.049 0.092,-0.077C0.08,-0.106 0.073,-0.142 0.073,-0.184L0.073,-0.486L0.154,-0.486L0.154,-0.185C0.154,-0.157 0.158,-0.133 0.166,-0.114C0.173,-0.095 0.185,-0.081 0.202,-0.071C0.218,-0.062 0.239,-0.058 0.264,-0.058C0.292,-0.058 0.316,-0.064 0.337,-0.077C0.358,-0.089 0.374,-0.107 0.386,-0.13C0.398,-0.153 0.404,-0.18 0.404,-0.21L0.404,-0.486L0.485,-0.486L0.485,-0L0.406,-0L0.406,-0.112L0.419,-0.112C0.406,-0.073 0.384,-0.043 0.354,-0.022C0.324,-0.001 0.288,0.009 0.248,0.009Z" style="fill:rgb(51,51,51);fill-rule:nonzero;"/>
            </g>
            <g transform="matrix(30,0,0,30,836.547,433.65)">
                <path d="M0.24,0.009C0.215,0.009 0.191,0.007 0.167,0.002C0.143,-0.003 0.121,-0.01 0.101,-0.019C0.081,-0.028 0.063,-0.039 0.048,-0.052L0.074,-0.109C0.09,-0.096 0.107,-0.086 0.126,-0.078C0.144,-0.069 0.163,-0.063 0.183,-0.059C0.203,-0.055 0.222,-0.053 0.242,-0.053C0.28,-0.053 0.309,-0.06 0.328,-0.074C0.348,-0.088 0.358,-0.107 0.358,-0.131C0.358,-0.15 0.351,-0.165 0.338,-0.176C0.325,-0.186 0.305,-0.195 0.278,-0.201L0.187,-0.221C0.145,-0.23 0.114,-0.245 0.094,-0.266C0.073,-0.288 0.063,-0.315 0.063,-0.349C0.063,-0.379 0.071,-0.405 0.087,-0.427C0.102,-0.448 0.125,-0.465 0.153,-0.477C0.182,-0.489 0.215,-0.495 0.253,-0.495C0.275,-0.495 0.297,-0.493 0.318,-0.488C0.339,-0.484 0.359,-0.477 0.377,-0.468C0.395,-0.459 0.411,-0.447 0.424,-0.434L0.397,-0.377C0.384,-0.389 0.37,-0.399 0.354,-0.408C0.338,-0.416 0.321,-0.422 0.304,-0.427C0.287,-0.431 0.27,-0.433 0.253,-0.433C0.216,-0.433 0.188,-0.426 0.168,-0.411C0.149,-0.397 0.139,-0.377 0.139,-0.353C0.139,-0.334 0.145,-0.319 0.157,-0.307C0.169,-0.295 0.187,-0.287 0.213,-0.281L0.304,-0.262C0.347,-0.252 0.379,-0.237 0.401,-0.217C0.423,-0.197 0.434,-0.17 0.434,-0.135C0.434,-0.106 0.426,-0.08 0.41,-0.058C0.394,-0.037 0.371,-0.02 0.342,-0.009C0.313,0.003 0.279,0.009 0.24,0.009Z" style="fill:rgb(51,51,51);fill-rule:nonzero;"/>
            </g>
            <g transform="matrix(30,0,0,30,850.977,433.65)">
                <path d="M0.295,0.009C0.244,0.009 0.2,-0.001 0.162,-0.022C0.125,-0.042 0.097,-0.071 0.076,-0.108C0.056,-0.146 0.046,-0.19 0.046,-0.242C0.046,-0.293 0.056,-0.337 0.076,-0.375C0.096,-0.412 0.123,-0.442 0.159,-0.463C0.194,-0.485 0.234,-0.495 0.28,-0.495C0.324,-0.495 0.362,-0.486 0.393,-0.466C0.424,-0.447 0.448,-0.42 0.465,-0.384C0.482,-0.349 0.491,-0.306 0.491,-0.257L0.491,-0.226L0.108,-0.226L0.108,-0.279L0.438,-0.279L0.421,-0.266C0.421,-0.319 0.409,-0.361 0.386,-0.39C0.362,-0.42 0.327,-0.435 0.282,-0.435C0.248,-0.435 0.219,-0.427 0.196,-0.411C0.172,-0.396 0.154,-0.374 0.142,-0.346C0.13,-0.318 0.124,-0.286 0.124,-0.25L0.124,-0.244C0.124,-0.203 0.131,-0.169 0.144,-0.141C0.157,-0.113 0.176,-0.092 0.202,-0.078C0.228,-0.064 0.259,-0.056 0.295,-0.056C0.324,-0.056 0.352,-0.061 0.379,-0.07C0.405,-0.079 0.431,-0.094 0.455,-0.114L0.483,-0.057C0.461,-0.037 0.433,-0.021 0.399,-0.009C0.365,0.003 0.33,0.009 0.295,0.009Z" style="fill:rgb(51,51,51);fill-rule:nonzero;"/>
            </g>
            <g transform="matrix(30,0,0,30,866.937,433.65)">
                <path d="M0.076,-0L0.076,-0.486L0.155,-0.486L0.155,-0.371L0.145,-0.371C0.156,-0.411 0.176,-0.441 0.204,-0.461C0.232,-0.481 0.269,-0.493 0.315,-0.496L0.344,-0.499L0.35,-0.429L0.299,-0.423C0.253,-0.419 0.218,-0.404 0.194,-0.379C0.17,-0.354 0.158,-0.32 0.158,-0.277L0.158,-0L0.076,-0Z" style="fill:rgb(51,51,51);fill-rule:nonzero;"/>
            </g>
            <g transform="matrix(30,0,0,30,877.527,433.65)">
                <path d="M0.24,0.009C0.215,0.009 0.191,0.007 0.167,0.002C0.143,-0.003 0.121,-0.01 0.101,-0.019C0.081,-0.028 0.063,-0.039 0.048,-0.052L0.074,-0.109C0.09,-0.096 0.107,-0.086 0.126,-0.078C0.144,-0.069 0.163,-0.063 0.183,-0.059C0.203,-0.055 0.222,-0.053 0.242,-0.053C0.28,-0.053 0.309,-0.06 0.328,-0.074C0.348,-0.088 0.358,-0.107 0.358,-0.131C0.358,-0.15 0.351,-0.165 0.338,-0.176C0.325,-0.186 0.305,-0.195 0.278,-0.201L0.187,-0.221C0.145,-0.23 0.114,-0.245 0.094,-0.266C0.073,-0.288 0.063,-0.315 0.063,-0.349C0.063,-0.379 0.071,-0.405 0.087,-0.427C0.102,-0.448 0.125,-0.465 0.153,-0.477C0.182,-0.489 0.215,-0.495 0.253,-0.495C0.275,-0.495 0.297,-0.493 0.318,-0.488C0.339,-0.484 0.359,-0.477 0.377,-0.468C0.395,-0.459 0.411,-0.447 0.424,-0.434L0.397,-0.377C0.384,-0.389 0.37,-0.399 0.354,-0.408C0.338,-0.416 0.321,-0.422 0.304,-0.427C0.287,-0.431 0.27,-0.433 0.253,-0.433C0.216,-0.433 0.188,-0.426 0.168,-0.411C0.149,-0.397 0.139,-0.377 0.139,-0.353C0.139,-0.334 0.145,-0.319 0.157,-0.307C0.169,-0.295 0.187,-0.287 0.213,-0.281L0.304,-0.262C0.347,-0.252 0.379,-0.237 0.401,-0.217C0.423,-0.197 0.434,-0.17 0.434,-0.135C0.434,-0.106 0.426,-0.08 0.41,-0.058C0.394,-0.037 0.371,-0.02 0.342,-0.009C0.313,0.003 0.279,0.009 0.24,0.009Z" style="fill:rgb(51,51,51);fill-rule:nonzero;"/>
            </g>
            <g transform="matrix(30,0,0,30,891.957,433.65)">
            </g>
            <g transform="matrix(30,0,0,30,899.667,433.65)">
                <path d="M0.205,-0L0.025,-0.486L0.109,-0.486L0.258,-0.06L0.234,-0.06L0.388,-0.486L0.457,-0.486L0.608,-0.06L0.585,-0.06L0.736,-0.486L0.817,-0.486L0.635,-0L0.558,-0L0.399,-0.437L0.442,-0.437L0.283,-0L0.205,-0Z" style="fill:rgb(51,51,51);fill-rule:nonzero;"/>
            </g>
            <g transform="matrix(30,0,0,30,924.597,433.65)">
                <path d="M0.229,0.009C0.195,0.009 0.166,0.002 0.139,-0.011C0.113,-0.024 0.092,-0.042 0.077,-0.064C0.062,-0.087 0.054,-0.112 0.054,-0.14C0.054,-0.176 0.063,-0.204 0.081,-0.225C0.099,-0.245 0.13,-0.26 0.172,-0.269C0.215,-0.278 0.273,-0.282 0.346,-0.282L0.391,-0.282L0.391,-0.229L0.347,-0.229C0.307,-0.229 0.272,-0.227 0.245,-0.225C0.218,-0.222 0.196,-0.217 0.18,-0.211C0.164,-0.205 0.153,-0.196 0.146,-0.185C0.139,-0.174 0.136,-0.161 0.136,-0.145C0.136,-0.117 0.145,-0.095 0.164,-0.078C0.183,-0.06 0.209,-0.052 0.242,-0.052C0.269,-0.052 0.292,-0.058 0.313,-0.071C0.333,-0.084 0.349,-0.101 0.361,-0.123C0.372,-0.145 0.378,-0.17 0.378,-0.199L0.378,-0.313C0.378,-0.354 0.37,-0.384 0.353,-0.403C0.336,-0.421 0.309,-0.43 0.271,-0.43C0.242,-0.43 0.214,-0.426 0.186,-0.418C0.159,-0.409 0.131,-0.396 0.102,-0.377L0.074,-0.436C0.091,-0.448 0.111,-0.459 0.133,-0.468C0.155,-0.476 0.178,-0.483 0.202,-0.488C0.226,-0.493 0.249,-0.495 0.271,-0.495C0.313,-0.495 0.348,-0.488 0.375,-0.475C0.403,-0.461 0.423,-0.441 0.436,-0.413C0.45,-0.385 0.456,-0.35 0.456,-0.306L0.456,-0L0.38,-0L0.38,-0.113L0.389,-0.113C0.384,-0.088 0.373,-0.066 0.358,-0.048C0.343,-0.03 0.325,-0.016 0.303,-0.006C0.281,0.004 0.256,0.009 0.229,0.009Z" style="fill:rgb(51,51,51);fill-rule:nonzero;"/>
            </g>
            <g transform="matrix(30,0,0,30,940.497,433.65)">
                <path d="M0.076,-0L0.076,-0.486L0.155,-0.486L0.155,-0.378L0.144,-0.378C0.158,-0.417 0.181,-0.446 0.212,-0.466C0.244,-0.485 0.281,-0.495 0.322,-0.495C0.361,-0.495 0.393,-0.488 0.419,-0.474C0.444,-0.46 0.463,-0.439 0.476,-0.411C0.489,-0.382 0.495,-0.346 0.495,-0.303L0.495,-0L0.414,-0L0.414,-0.298C0.414,-0.328 0.41,-0.353 0.402,-0.372C0.395,-0.391 0.382,-0.405 0.366,-0.415C0.35,-0.424 0.329,-0.429 0.303,-0.429C0.274,-0.429 0.248,-0.422 0.226,-0.41C0.204,-0.397 0.187,-0.38 0.175,-0.357C0.163,-0.334 0.157,-0.307 0.157,-0.277L0.157,-0L0.076,-0Z" style="fill:rgb(51,51,51);fill-rule:nonzero;"/>
            </g>
            <g transform="matrix(30,0,0,30,957.537,433.65)">
                <path d="M0.271,0.009C0.213,0.009 0.17,-0.006 0.142,-0.037C0.113,-0.067 0.099,-0.111 0.099,-0.168L0.099,-0.423L0.004,-0.423L0.004,-0.486L0.099,-0.486L0.099,-0.635L0.18,-0.635L0.18,-0.486L0.334,-0.486L0.334,-0.423L0.18,-0.423L0.18,-0.176C0.18,-0.138 0.188,-0.109 0.204,-0.09C0.22,-0.07 0.246,-0.06 0.282,-0.06C0.293,-0.06 0.303,-0.061 0.314,-0.064C0.324,-0.067 0.334,-0.07 0.343,-0.072L0.357,-0.01C0.348,-0.005 0.336,-0.001 0.319,0.003C0.302,0.007 0.286,0.009 0.271,0.009Z" style="fill:rgb(51,51,51);fill-rule:nonzero;"/>
            </g>
            <g transform="matrix(30,0,0,30,968.037,433.65)">
            </g>
        </g>
        <g transform="matrix(1,0,0,1,-325,-2.28882e-05)">
            <g transform="matrix(30,0,0,30,668.367,433.65)">
                <path d="M0.277,-0L0.03,-0.705L0.116,-0.705L0.333,-0.07L0.298,-0.07L0.519,-0.705L0.585,-0.705L0.803,-0.07L0.772,-0.07L0.99,-0.705L1.072,-0.705L0.825,-0L0.752,-0L0.54,-0.61L0.562,-0.61L0.348,-0L0.277,-0Z" style="fill:rgb(51,51,51);fill-rule:nonzero;"/>
            </g>
            <g transform="matrix(30,0,0,30,701.397,433.65)">
                <path d="M0.076,-0L0.076,-0.705L0.157,-0.705L0.157,-0.378L0.144,-0.378C0.158,-0.417 0.181,-0.446 0.212,-0.466C0.244,-0.485 0.281,-0.495 0.322,-0.495C0.361,-0.495 0.393,-0.488 0.419,-0.474C0.444,-0.46 0.463,-0.439 0.476,-0.41C0.489,-0.382 0.495,-0.346 0.495,-0.303L0.495,-0L0.414,-0L0.414,-0.298C0.414,-0.328 0.41,-0.353 0.402,-0.372C0.395,-0.391 0.382,-0.405 0.366,-0.415C0.35,-0.424 0.329,-0.429 0.303,-0.429C0.274,-0.429 0.248,-0.422 0.226,-0.41C0.204,-0.397 0.187,-0.38 0.175,-0.357C0.163,-0.334 0.157,-0.307 0.157,-0.277L0.157,-0L0.076,-0Z" style="fill:rgb(51,51,51);fill-rule:nonzero;"/>
            </g>
            <g transform="matrix(30,0,0,30,718.437,433.65)">
                <path d="M0.229,0.009C0.195,0.009 0.166,0.002 0.139,-0.011C0.113,-0.024 0.092,-0.042 0.077,-0.064C0.062,-0.087 0.054,-0.112 0.054,-0.14C0.054,-0.176 0.063,-0.204 0.081,-0.225C0.099,-0.245 0.13,-0.26 0.172,-0.269C0.215,-0.278 0.273,-0.282 0.346,-0.282L0.391,-0.282L0.391,-0.229L0.347,-0.229C0.307,-0.229 0.272,-0.227 0.245,-0.225C0.218,-0.222 0.196,-0.217 0.18,-0.211C0.164,-0.205 0.153,-0.196 0.146,-0.185C0.139,-0.174 0.136,-0.161 0.136,-0.145C0.136,-0.117 0.145,-0.095 0.164,-0.078C0.183,-0.06 0.209,-0.052 0.242,-0.052C0.269,-0.052 0.292,-0.058 0.313,-0.071C0.333,-0.084 0.349,-0.101 0.361,-0.123C0.372,-0.145 0.378,-0.17 0.378,-0.199L0.378,-0.313C0.378,-0.354 0.37,-0.384 0.353,-0.403C0.336,-0.421 0.309,-0.43 0.271,-0.43C0.242,-0.43 0.214,-0.426 0.186,-0.418C0.159,-0.409 0.131,-0.396 0.102,-0.377L0.074,-0.436C0.091,-0.448 0.111,-0.459 0.133,-0.468C0.155,-0.476 0.178,-0.483 0.202,-0.488C0.226,-0.493 0.249,-0.495 0.271,-0.495C0.313,-0.495 0.348,-0.488 0.375,-0.475C0.403,-0.461 0.423,-0.441 0.436,-0.413C0.45,-0.385 0.456,-0.35 0.456,-0.306L0.456,-0L0.38,-0L0.38,-0.113L0.389,-0.113C0.384,-0.088 0.373,-0.066 0.358,-0.048C0.343,-0.03 0.325,-0.016 0.303,-0.006C0.281,0.004 0.256,0.009 0.229,0.009Z" style="fill:rgb(51,51,51);fill-rule:nonzero;"/>
            </g>
            <g transform="matrix(30,0,0,30,734.337,433.65)">
                <path d="M0.271,0.009C0.213,0.009 0.17,-0.006 0.142,-0.037C0.113,-0.067 0.099,-0.111 0.099,-0.168L0.099,-0.423L0.004,-0.423L0.004,-0.486L0.099,-0.486L0.099,-0.635L0.18,-0.635L0.18,-0.486L0.334,-0.486L0.334,-0.423L0.18,-0.423L0.18,-0.176C0.18,-0.138 0.188,-0.109 0.204,-0.09C0.22,-0.07 0.246,-0.06 0.282,-0.06C0.293,-0.06 0.303,-0.061 0.314,-0.064C0.324,-0.067 0.334,-0.07 0.343,-0.072L0.357,-0.01C0.348,-0.005 0.336,-0.001 0.319,0.003C0.302,0.007 0.286,0.009 0.271,0.009Z" style="fill:rgb(51,51,51);fill-rule:nonzero;"/>
            </g>
            <g transform="matrix(30,0,0,30,744.837,433.65)">
            </g>
            <g transform="matrix(30,0,0,30,752.547,433.65)">
                <path d="M0.132,0.18L0.223,-0.025L0.223,0.01L0.01,-0.486L0.098,-0.486L0.272,-0.06L0.245,-0.06L0.421,-0.486L0.506,-0.486L0.217,0.18L0.132,0.18Z" style="fill:rgb(51,51,51);fill-rule:nonzero;"/>
            </g>
            <g transform="matrix(30,0,0,30,767.757,433.65)">
                <path d="M0.278,0.009C0.231,0.009 0.19,-0.001 0.155,-0.022C0.121,-0.043 0.094,-0.072 0.075,-0.11C0.055,-0.148 0.046,-0.192 0.046,-0.243C0.046,-0.295 0.055,-0.339 0.075,-0.377C0.094,-0.414 0.121,-0.444 0.155,-0.464C0.19,-0.485 0.231,-0.495 0.278,-0.495C0.325,-0.495 0.366,-0.485 0.401,-0.464C0.435,-0.444 0.462,-0.414 0.481,-0.377C0.5,-0.339 0.51,-0.295 0.51,-0.243C0.51,-0.192 0.5,-0.148 0.481,-0.11C0.462,-0.072 0.435,-0.043 0.401,-0.022C0.366,-0.001 0.325,0.009 0.278,0.009ZM0.278,-0.056C0.324,-0.056 0.36,-0.073 0.387,-0.105C0.414,-0.137 0.428,-0.183 0.428,-0.244C0.428,-0.304 0.414,-0.35 0.387,-0.382C0.36,-0.414 0.324,-0.43 0.278,-0.43C0.232,-0.43 0.196,-0.414 0.169,-0.382C0.142,-0.35 0.128,-0.304 0.128,-0.244C0.128,-0.183 0.142,-0.137 0.169,-0.105C0.196,-0.073 0.232,-0.056 0.278,-0.056Z" style="fill:rgb(51,51,51);fill-rule:nonzero;"/>
            </g>
            <g transform="matrix(30,0,0,30,784.437,433.65)">
                <path d="M0.248,0.009C0.209,0.009 0.177,0.002 0.151,-0.013C0.125,-0.027 0.105,-0.049 0.092,-0.077C0.08,-0.106 0.073,-0.142 0.073,-0.184L0.073,-0.486L0.154,-0.486L0.154,-0.185C0.154,-0.157 0.158,-0.133 0.166,-0.114C0.173,-0.095 0.185,-0.081 0.202,-0.071C0.218,-0.062 0.239,-0.058 0.264,-0.058C0.292,-0.058 0.316,-0.064 0.337,-0.077C0.358,-0.089 0.374,-0.107 0.386,-0.13C0.398,-0.153 0.404,-0.18 0.404,-0.21L0.404,-0.486L0.485,-0.486L0.485,-0L0.406,-0L0.406,-0.112L0.419,-0.112C0.406,-0.073 0.384,-0.043 0.354,-0.022C0.324,-0.001 0.288,0.009 0.248,0.009Z" style="fill:rgb(51,51,51);fill-rule:nonzero;"/>
            </g>
            <g transform="matrix(30,0,0,30,801.267,433.65)">
            </g>
            <g transform="matrix(30,0,0,30,808.977,433.65)">
                <path d="M0.205,-0L0.025,-0.486L0.109,-0.486L0.258,-0.06L0.234,-0.06L0.388,-0.486L0.457,-0.486L0.608,-0.06L0.585,-0.06L0.736,-0.486L0.817,-0.486L0.635,-0L0.558,-0L0.399,-0.437L0.442,-0.437L0.283,-0L0.205,-0Z" style="fill:rgb(51,51,51);fill-rule:nonzero;"/>
            </g>
            <g transform="matrix(30,0,0,30,833.907,433.65)">
                <path d="M0.229,0.009C0.195,0.009 0.166,0.002 0.139,-0.011C0.113,-0.024 0.092,-0.042 0.077,-0.064C0.062,-0.087 0.054,-0.112 0.054,-0.14C0.054,-0.176 0.063,-0.204 0.081,-0.225C0.099,-0.245 0.13,-0.26 0.172,-0.269C0.215,-0.278 0.273,-0.282 0.346,-0.282L0.391,-0.282L0.391,-0.229L0.347,-0.229C0.307,-0.229 0.272,-0.227 0.245,-0.225C0.218,-0.222 0.196,-0.217 0.18,-0.211C0.164,-0.205 0.153,-0.196 0.146,-0.185C0.139,-0.174 0.136,-0.161 0.136,-0.145C0.136,-0.117 0.145,-0.095 0.164,-0.078C0.183,-0.06 0.209,-0.052 0.242,-0.052C0.269,-0.052 0.292,-0.058 0.313,-0.071C0.333,-0.084 0.349,-0.101 0.361,-0.123C0.372,-0.145 0.378,-0.17 0.378,-0.199L0.378,-0.313C0.378,-0.354 0.37,-0.384 0.353,-0.403C0.336,-0.421 0.309,-0.43 0.271,-0.43C0.242,-0.43 0.214,-0.426 0.186,-0.418C0.159,-0.409 0.131,-0.396 0.102,-0.377L0.074,-0.436C0.091,-0.448 0.111,-0.459 0.133,-0.468C0.155,-0.476 0.178,-0.483 0.202,-0.488C0.226,-0.493 0.249,-0.495 0.271,-0.495C0.313,-0.495 0.348,-0.488 0.375,-0.475C0.403,-0.461 0.423,-0.441 0.436,-0.413C0.45,-0.385 0.456,-0.35 0.456,-0.306L0.456,-0L0.38,-0L0.38,-0.113L0.389,-0.113C0.384,-0.088 0.373,-0.066 0.358,-0.048C0.343,-0.03 0.325,-0.016 0.303,-0.006C0.281,0.004 0.256,0.009 0.229,0.009Z" style="fill:rgb(51,51,51);fill-rule:nonzero;"/>
            </g>
            <g transform="matrix(30,0,0,30,849.807,433.65)">
                <path d="M0.076,-0L0.076,-0.486L0.155,-0.486L0.155,-0.378L0.144,-0.378C0.158,-0.417 0.181,-0.446 0.212,-0.466C0.244,-0.485 0.281,-0.495 0.322,-0.495C0.361,-0.495 0.393,-0.488 0.419,-0.474C0.444,-0.46 0.463,-0.439 0.476,-0.411C0.489,-0.382 0.495,-0.346 0.495,-0.303L0.495,-0L0.414,-0L0.414,-0.298C0.414,-0.328 0.41,-0.353 0.402,-0.372C0.395,-0.391 0.382,-0.405 0.366,-0.415C0.35,-0.424 0.329,-0.429 0.303,-0.429C0.274,-0.429 0.248,-0.422 0.226,-0.41C0.204,-0.397 0.187,-0.38 0.175,-0.357C0.163,-0.334 0.157,-0.307 0.157,-0.277L0.157,-0L0.076,-0Z" style="fill:rgb(51,51,51);fill-rule:nonzero;"/>
            </g>
            <g transform="matrix(30,0,0,30,866.847,433.65)">
                <path d="M0.271,0.009C0.213,0.009 0.17,-0.006 0.142,-0.037C0.113,-0.067 0.099,-0.111 0.099,-0.168L0.099,-0.423L0.004,-0.423L0.004,-0.486L0.099,-0.486L0.099,-0.635L0.18,-0.635L0.18,-0.486L0.334,-0.486L0.334,-0.423L0.18,-0.423L0.18,-0.176C0.18,-0.138 0.188,-0.109 0.204,-0.09C0.22,-0.07 0.246,-0.06 0.282,-0.06C0.293,-0.06 0.303,-0.061 0.314,-0.064C0.324,-0.067 0.334,-0.07 0.343,-0.072L0.357,-0.01C0.348,-0.005 0.336,-0.001 0.319,0.003C0.302,0.007 0.286,0.009 0.271,0.009Z" style="fill:rgb(51,51,51);fill-rule:nonzero;"/>
            </g>
            <g transform="matrix(30,0,0,30,877.347,433.65)">
            </g>
        </g>
    </g>
</svg>
