<?xml version="1.0" encoding="UTF-8" standalone="no"?>
<!DOCTYPE svg PUBLIC "-//W3C//DTD SVG 1.1//EN" "http://www.w3.org/Graphics/SVG/1.1/DTD/svg11.dtd">
<svg width="100%" height="100%" viewBox="0 0 400 301" version="1.1" xmlns="http://www.w3.org/2000/svg" xmlns:xlink="http://www.w3.org/1999/xlink" xml:space="preserve" xmlns:serif="http://www.serif.com/" style="fill-rule:evenodd;clip-rule:evenodd;stroke-linejoin:round;stroke-miterlimit:2;">
    <path d="M375.8,0.5L379.2,0.5C390.3,1.1 399.4,10.8 400.1,21.7L400.1,25.4C399.4,35.2 391.8,44 382.1,45.8C373.2,47.7 363.8,43.5 358.5,36.3C353.7,39.1 348.8,41.7 343.9,44.4C345.6,51.1 343.4,58.8 337.6,62.9C331,68 321.2,66.8 315.2,61.3C311.1,63.7 307,66.2 303,68.6C303,73.1 302.6,78.2 299,81.4C294.4,86.2 286.7,86.1 281.2,82.9C277.2,85.9 273,88.7 269,91.8C268.9,95.8 267.6,100.2 263.8,102.1C260.7,104.2 256.9,103.4 253.7,102C238,114.4 222.3,126.8 208.1,140.9C216.6,161.8 223.9,183.3 228.2,205.5C229.4,212.9 231.2,220.8 228.6,228.2C226.9,233.2 224,238.3 219.1,240.7C215.2,242.7 210.4,242.3 206.9,239.7C208.7,236.1 213.5,235.2 214.8,231.2C216.8,225.1 215.6,218.6 214.9,212.4C211.8,191.7 205.7,171.5 199,151.7C193.5,158.1 187.9,164.4 182.4,170.8C185.9,170.9 189.4,170.5 192.9,171.1C196.7,171.9 196.5,178.3 192.7,179C187,179.5 181.3,179.1 175.6,179.2C171.7,184.7 167.8,190.2 164,195.8L189.2,195.8C191.3,195.9 194.1,195.7 195.1,197.9C196.6,200.6 194.5,204.5 191.2,204.1C180.2,204.2 169.1,204.1 158.1,204.2C155.1,210 152,215.8 149,221.6C163.1,221.7 177.1,221.5 191.2,221.7C194.4,221.3 196.6,224.9 195.2,227.6C194.3,230.1 191.3,229.9 189.1,230L143.9,230C139.7,241.4 136.8,253.7 138.3,265.9C139.4,275.2 143.4,284.3 150.3,290.7C152.4,292.7 154.9,294.1 156.8,296.2C157.8,299.2 154.7,301.1 152.3,301.9L149.9,301.9C135.3,297.9 122,286.6 118.3,271.6C114.7,257.6 118.1,243 123.2,229.8C129.8,213 139.6,197.6 150.5,183.2C163.3,166.4 177.9,150.9 193.9,137C180.1,100.5 162.9,64.5 137.3,34.6C135,31.4 131,29.1 130.3,24.9C133,24.3 134.9,26.6 136.6,28.3C164.9,57.3 187.4,91.7 203.9,128.7C218.4,116.2 234.3,105.3 250.3,94.7C250.3,90.8 251.1,86.5 254.6,84.1C258.4,81.1 263.6,81.9 267.3,84.4C271.4,82 275.4,79.6 279.4,77.2C278.3,74.2 277.4,71.1 278.4,67.9C279.8,61.5 286.7,57 293.1,58.1C296.8,58.6 299.6,61.1 302.2,63.6C305.9,61.3 309.5,59 313.5,57.1C309.3,50 311.2,40.1 318,35.4C325.9,29.3 338.7,32.1 343,41.2C348,38.9 352.7,36.2 357.6,33.8C354.9,27.5 354.3,20 357.3,13.7C360.3,6.2 367.8,1.2 375.8,0.5Z" style="fill:rgb(244,125,32);fill-rule:nonzero;"/>
    <path d="M106.5,92.7C107.5,88.9 107.3,85 107.3,81.1L128.1,81.1C122,109.2 116,137.3 109.9,165.4C108.6,170.7 107.6,176.1 107.3,181.6L85.8,181.6C88.5,175.2 90.2,168.5 91.6,161.7C96.5,138.6 101.6,115.7 106.5,92.7Z" style="fill:rgb(51,51,51);fill-rule:nonzero;"/>
    <path d="M145.4,83.1C152,80.8 159,87.8 156.8,94.4C155.2,100.7 146.5,103.1 141.9,98.6C136.6,94.3 138.8,84.8 145.4,83.1Z" style="fill:rgb(51,51,51);fill-rule:nonzero;"/>
    <path d="M12.7,122.1C15.9,117 22.4,115.2 28.1,115.1L71.1,115.1C75.7,115.1 81.4,116.3 83.5,120.9C84.5,124.2 84.2,127.9 83.6,131.3C81.8,138.6 80,146 78.3,153.3L20.1,153.3C18.8,159.1 17,164.7 16,170.6C15.5,173.4 19.2,173.2 21,173.3C38.2,172.9 55.4,174.2 72.5,172.4C72.2,175.4 72,178.5 71.7,181.5L14.2,181.5C10.6,181.5 6.7,181.2 3.6,179.1C1.4,177.7 0.8,175.1 0.1,172.7L0.1,170.7C0.7,162 3.7,153.6 5.4,145.1C7.4,137.3 8.2,129 12.7,122.1ZM27.9,127.3C26.8,133.2 25.4,139.1 24.1,145L64,145C65,138.3 66.3,131.6 67.5,125C66.1,124.2 64.7,123.3 63,123.5C53.3,123.4 43.6,123.5 33.9,123.5C31.4,123.3 28.4,124.6 27.9,127.3Z" style="fill:rgb(51,51,51);fill-rule:nonzero;"/>
    <path d="M134.7,115.9L153.8,115.9C150.4,131.1 146.9,146.4 143.5,161.6C142,168.2 140.2,174.7 139.6,181.5L119.8,181.5C122,176.7 123.8,171.7 125,166.6C128.1,152.7 131.2,138.8 134.3,125C134.9,122 134.7,118.9 134.7,115.9Z" style="fill:rgb(51,51,51);fill-rule:nonzero;"/>
    <path d="M247,115.9L266.1,115.9C262.3,132.8 258.5,149.7 254.6,166.6C253.4,171.5 252.3,176.5 251.8,181.5L231.9,181.5C234.2,176.6 236,171.4 237.2,166.1C240.3,152.3 243.3,138.5 246.4,124.6C247.2,121.7 247,118.8 247,115.9Z" style="fill:rgb(51,51,51);fill-rule:nonzero;"/>
    <path d="M285.2,116.8L302.7,116.8C302.4,118.9 302.2,121.1 301.8,123.2C303.4,119.4 307.3,117.2 311.3,116.9C317.6,116.6 323.9,116.9 330.1,116.8C331.5,119.3 332.8,121.7 334.2,124.2C332.8,125.7 331.4,127.1 330,128.6C326.8,126 322.6,126.9 318.9,126.7C314.1,126.9 309.3,126.4 304.5,127C302.4,128 301.5,130.5 300.8,132.6C297.8,145 295,157.4 292.1,169.7C291.1,173.8 291,178.1 291,182.3L270.2,182.3C271.8,178.4 273.8,174.6 274.7,170.5C278.2,155.9 281.2,141.1 284.6,126.5C285.4,123.4 285.3,120 285.2,116.8Z" style="fill:rgb(51,51,51);fill-rule:nonzero;"/>
</svg>
