<svg width="586" height="130" viewBox="0 0 586 130" fill="none" xmlns="http://www.w3.org/2000/svg">
<path d="M87.227 95.14C87.227 95.14 48.5129 66.8911 21.4326 100.88L0.563721 102.356C3.85395 98.4609 48.1235 50.2965 87.227 95.14Z" fill="white"/>
<path d="M73.1948 71.8726H67.9366V64.3286C67.9366 63.3344 67.8136 62.6681 67.5471 62.3299C67.2498 62.0224 66.6451 61.8686 65.7431 61.8686H61.3151V71.8726H56.0466V61.8686H51.5982L48.5129 56.8257H56.0466V21.4326C56.6924 21.4326 58.1581 21.9964 60.4439 23.1136C63.8981 24.7843 66.6553 26.9368 68.7361 29.5608C71.6983 33.3123 73.1948 37.8223 73.1948 43.06C73.1948 48.3592 71.4011 52.9512 67.8033 56.8257C69.8328 57.0307 71.2371 57.6662 72.0161 58.7117C72.7951 59.7469 73.1846 61.6021 73.1846 64.2876V71.8726H73.1948ZM67.9366 43.6545C67.9366 39.9235 66.8398 36.5205 64.6566 33.4558C63.9289 32.4718 62.8116 31.3136 61.3151 29.9811V56.8257C62.7706 55.6572 63.8571 54.6117 64.5849 53.6687C66.8091 50.7269 67.9366 47.3855 67.9366 43.6442" fill="white"/>
<path d="M44.9152 71.8726H37.2585V56.9897H27.1828V71.8726H19.5056V56.9897H12.7611L8.24091 49.4662H19.5056V0H27.1828V49.4662H37.2585V0H44.9152V71.8726Z" fill="white"/>
<path d="M5.48372 21.7401H0V71.8726H5.48372V21.7401Z" fill="white"/>
<path d="M174.065 77.0181L175.264 73.2973H162.585V95.181H175.233V91.4602H167.125V85.8843H174.106V82.1328H167.125V77.0181H174.065Z" fill="white"/>
<path d="M185.134 73.2973L176.606 95.181H181.086L182.715 90.5992H191.018L192.668 95.181H197.547L188.66 73.2973H185.124H185.134ZM184.027 86.9605L186.856 79.0271L189.716 86.9605H184.027Z" fill="white"/>
<path d="M124.342 14.0937L135.207 28.7306H139.42V6.84695H134.91V21.0226L124.404 6.84695H119.822V28.7306H124.342V14.0937Z" fill="white"/>
<path d="M116.009 6.84695H111.458V28.7306H116.009V6.84695Z" fill="white"/>
<path d="M181.598 6.84695H177.047V28.7306H181.598V6.84695Z" fill="white"/>
<path d="M189.87 28.7306H194.452V10.5677H199.884L200.919 6.84695H183.925V10.5677H189.87V28.7306Z" fill="white"/>
<path d="M229.742 28.7306H234.334V10.5677H239.767L240.792 6.84695H223.797V10.5677H229.742V28.7306Z" fill="white"/>
<path d="M164.122 28.7306H168.704V10.5677H174.136L175.172 6.84695H158.177V10.5677H164.122V28.7306Z" fill="white"/>
<path d="M152.335 23.1546C152.335 24.8151 150.787 25.3276 149.178 25.3276C147.261 25.3276 144.524 24.3334 143.007 23.3801V27.6338C144.565 28.5051 146.728 29.0586 149.383 29.0586C153.872 29.0586 157.142 26.5678 157.142 22.5806C157.142 15.7132 147.62 16.0412 147.62 12.2487C147.62 10.9879 148.88 10.2602 150.51 10.2602C152.304 10.2602 154.026 10.8547 155.891 11.8592V7.93345C154.631 7.2057 152.601 6.61121 150.285 6.61121C145.467 6.61121 142.843 9.53244 142.843 12.8534C142.843 14.5447 143.407 15.7747 144.237 16.7381C146.892 19.7619 152.335 20.2539 152.335 23.1444V23.1546Z" fill="white"/>
<path d="M212.061 29.0381C217.483 29.0381 221.481 26.8241 221.481 20.3974V6.84695H216.971V20.0899C216.971 23.7901 214.962 25.2251 212.061 25.2251C209.15 25.2251 207.151 23.7901 207.151 20.0899V6.84695H202.641V20.3974C202.641 26.8241 206.639 29.0381 212.061 29.0381Z" fill="white"/>
<path d="M255.162 25.0099H247.054V19.4339H254.035V15.6824H247.054V10.5677H253.994L255.193 6.84695H242.514V28.7306H255.162V25.0099Z" fill="white"/>
<path d="M274.534 6.62146C267.913 6.62146 263.249 11.4697 263.249 18.0399C263.249 24.4359 267.513 29.0688 274.534 29.0688C281.238 29.0688 285.83 24.1284 285.83 17.7734C285.83 11.4492 281.638 6.62146 274.534 6.62146ZM274.534 25.4096C270.742 25.4096 267.985 22.6524 267.985 17.8759C267.985 13.0994 270.742 10.3422 274.534 10.3422C278.327 10.3422 281.012 13.1609 281.012 17.8759C281.012 22.6524 278.255 25.4096 274.534 25.4096Z" fill="white"/>
<path d="M300.036 10.5677L301.205 6.84695H288.485V28.7306H293.036V19.5056H299.924V15.7849H293.036V10.5677H300.036Z" fill="white"/>
<path d="M126.197 79.8778C126.197 75.8393 124.024 73.3076 118.223 73.3076H111.458V95.1912H116.009V86.8375H118.305L123.133 95.1912H128.165L122.579 85.6997C124.947 84.4902 126.187 82.389 126.187 79.8778H126.197ZM118.325 83.2398H116.019V77.0898H118.325C120.447 77.0898 121.687 78.3915 121.687 80.0828C121.687 81.9073 120.447 83.25 118.325 83.25V83.2398Z" fill="white"/>
<path d="M214.337 79.8778C214.337 75.8393 212.164 73.3076 206.362 73.3076H199.597V95.1912H204.148V86.8375H206.444L211.272 95.1912H216.305L210.718 85.6997C213.086 84.4902 214.326 82.389 214.326 79.8778H214.337ZM206.465 83.2398H204.158V77.0898H206.465C208.586 77.0898 209.827 78.3915 209.827 80.0828C209.827 81.9073 208.586 83.25 206.465 83.25V83.2398Z" fill="white"/>
<path d="M141.623 77.0181L142.812 73.2973H130.143V95.181H142.782V91.4602H134.674V85.8843H141.654V82.1328H134.674V77.0181H141.623Z" fill="white"/>
<path d="M203.748 53.5969H206.044L210.872 61.9506H215.905L210.319 52.4592C212.686 51.2497 213.927 49.1485 213.927 46.6372C213.927 42.5988 211.754 40.067 205.952 40.067H199.187V61.9506H203.738V53.5969H203.748ZM203.748 43.8595H206.055C208.176 43.8595 209.417 45.1612 209.417 46.8525C209.417 48.677 208.176 50.0197 206.055 50.0197H203.748V43.8697V43.8595Z" fill="white"/>
<path d="M252.661 82.102H242.534V73.2973H237.983V95.181H242.534V86.0175H252.661V95.181H257.212V73.2973H252.661V82.102Z" fill="white"/>
<path d="M116.009 52.7974H126.136V61.9609H130.687V40.0773H126.136V48.8717H116.009V40.0773H111.458V61.9609H116.009V52.7974Z" fill="white"/>
<path d="M216.95 84.4595C216.95 90.6402 220.999 95.5192 228.143 95.5192C230.347 95.5192 232.52 95.0067 234.785 93.7562V90.0252C232.899 91.1015 230.849 91.7267 228.912 91.7267C224.597 91.7267 221.911 88.4365 221.911 84.2545C221.911 80.4723 224.166 76.8848 229.312 76.8848C231.034 76.8848 232.868 77.2846 234.785 78.4121V74.1993C233.36 73.4921 231.331 73.0718 229.137 73.0718C221.665 73.0718 216.95 78.1866 216.95 84.4595Z" fill="white"/>
<path d="M150.131 78.7093C150.131 77.4486 151.402 76.7208 153.021 76.7208C154.815 76.7208 156.537 77.3153 158.403 78.3198V74.3941C157.142 73.6663 155.112 73.0718 152.796 73.0718C147.978 73.0718 145.354 75.9931 145.354 79.3141C145.354 81.0053 145.918 82.2353 146.748 83.1988C149.403 86.2225 154.846 86.7145 154.846 89.605C154.846 91.2655 153.298 91.778 151.689 91.778C149.772 91.778 147.035 90.7837 145.518 89.8305V94.0842C147.076 94.9555 149.239 95.5192 151.894 95.5192C156.383 95.5192 159.653 93.0285 159.653 89.0412C159.653 82.1738 150.131 82.5018 150.131 78.7093Z" fill="white"/>
<path d="M151.955 56.3747C151.955 58.0352 150.408 58.5477 148.798 58.5477C146.882 58.5477 144.145 57.5534 142.628 56.6002V60.8539C144.186 61.7251 146.349 62.2889 149.003 62.2889C153.493 62.2889 156.763 59.7982 156.763 55.8109C156.763 48.9435 147.24 49.2715 147.24 45.479C147.24 44.2182 148.511 43.4905 150.131 43.4905C151.925 43.4905 153.647 44.085 155.512 45.0895V41.1638C154.251 40.436 152.222 39.8415 149.905 39.8415C145.088 39.8415 142.464 42.7628 142.464 46.0837C142.464 47.775 143.028 49.005 143.858 49.9685C146.513 52.9922 151.955 53.4842 151.955 56.3747Z" fill="white"/>
<path d="M139.04 40.0773H134.49V61.9609H139.04V40.0773Z" fill="white"/>
<path d="M222.424 40.0773H217.873V61.9609H222.424V40.0773Z" fill="white"/>
<path d="M271.818 40.0773H267.298V61.9609H279.526V58.2094H271.818V40.0773Z" fill="white"/>
<path d="M185.257 39.8415C178.636 39.8415 173.972 44.6897 173.972 51.26C173.972 57.6559 178.236 62.2889 185.257 62.2889C191.961 62.2889 196.553 57.3484 196.553 50.9935C196.553 44.6692 192.361 39.8415 185.257 39.8415ZM185.257 58.6399C181.465 58.6399 178.708 55.8827 178.708 51.1062C178.708 46.3195 181.465 43.5725 185.257 43.5725C189.05 43.5725 191.735 46.3912 191.735 51.1062C191.735 55.8827 188.978 58.6399 185.257 58.6399Z" fill="white"/>
<path d="M163.743 61.9609H168.335V43.798H173.767L174.792 40.0773H157.798V43.798H163.743V61.9609Z" fill="white"/>
<path d="M242.903 56.8052C241.017 57.8814 238.967 58.5067 237.03 58.5067C232.715 58.5067 230.029 55.2164 230.029 51.0345C230.029 47.2522 232.284 43.6648 237.43 43.6648C239.152 43.6648 240.986 44.0645 242.903 45.192V40.9793C241.478 40.272 239.449 39.8518 237.255 39.8518C229.783 39.8518 225.068 44.9665 225.068 51.2395C225.068 57.4099 229.117 62.2991 236.261 62.2991C238.465 62.2991 240.638 61.7866 242.903 60.5362V56.8052Z" fill="white"/>
<path d="M252.835 40.0773L244.307 61.9609H248.787L250.416 57.3792H258.719L260.369 61.9609H265.248L256.361 40.0773H252.825H252.835ZM251.718 53.7404L254.547 45.807L257.407 53.7404H251.718Z" fill="white"/>
<path d="M447.994 92.885C445.893 92.885 443.904 91.942 442.91 91.1425V94.3712C443.72 94.8017 445.585 95.4987 448.025 95.4987C451.694 95.4987 455.026 93.4077 455.026 89.6972C455.026 86.0995 452.166 84.4185 449.634 82.9323C447.451 81.651 445.555 80.5338 445.555 78.4838C445.555 76.0136 448.332 75.8291 449.183 75.8291C450.731 75.8291 452.617 76.3518 454.113 77.4588V74.2813C452.678 73.5126 450.977 73.1436 449.122 73.1436C445.124 73.1436 442.705 75.5318 442.705 78.7196C442.705 82.184 445.473 83.8548 447.902 85.341C449.993 86.612 451.971 87.8113 451.971 89.933C451.971 91.9625 449.901 92.885 447.984 92.885H447.994Z" fill="white"/>
<path d="M452.043 106.528H447.143V128.411H452.166C459.689 128.411 463.933 123.983 463.933 117.259C463.933 109.91 458.88 106.528 452.033 106.528H452.043ZM452.402 125.685H450.034V109.254H452.463C457.568 109.254 460.991 112.073 460.991 117.229C460.991 122.6 458.029 125.685 452.402 125.685Z" fill="white"/>
<path d="M389.344 106.528H386.454V128.411H397.441V125.685H389.344V106.528Z" fill="white"/>
<path d="M439.056 123.102L427.054 106.528H424.194V128.411H427.084V111.56L439.343 128.411H441.936V106.528H439.056V123.102Z" fill="white"/>
<path d="M507.024 123.102L495.021 106.528H492.161V128.411H495.052V111.571L507.321 128.411H509.914V106.528H507.024V123.102Z" fill="white"/>
<path d="M385.757 73.3076H382.866V95.1912H385.757V73.3076Z" fill="white"/>
<path d="M461.811 73.3076H458.921V95.1912H461.811V73.3076Z" fill="white"/>
<path d="M470.811 95.181H473.701V76.0238H479.431L480.476 73.3076H464.937V76.0238H470.811V95.181Z" fill="white"/>
<path d="M408.224 73.3076H405.201L398.128 90.3225L391.712 73.4716L391.65 73.3076H388.555L397.083 95.017L397.154 95.181H398.907L408.224 73.3076Z" fill="white"/>
<path d="M491.567 95.181V86.4378L498.619 73.3076H495.533L490.152 83.3628L484.597 73.3076H481.399L488.686 86.3763V95.181H491.567Z" fill="white"/>
<path d="M374.779 89.8715L362.776 73.3076H359.916V95.181H362.807V78.3403L375.066 95.181H377.669V73.3076H374.779V89.8715Z" fill="white"/>
<path d="M374.297 109.254L375.425 106.528H364.18V128.411H367.071V118.653H374.318V115.958H367.071V109.254H374.297Z" fill="white"/>
<path d="M421.273 76.0238L422.39 73.3076H411.023V95.181H422.359V92.4545H413.913V85.3308H421.293V82.635H413.913V76.0238H421.273Z" fill="white"/>
<path d="M438.503 79.8265C438.503 75.7368 435.715 73.2973 431.051 73.2973H426.418V95.181H429.309V86.612H432.107L437.457 95.181H440.717L434.997 85.7408C437.242 84.6235 438.523 82.4915 438.523 79.8368L438.503 79.8265ZM431.051 83.9573H429.298V76.0238H430.856C433.798 76.0238 435.428 77.3666 435.428 79.7958C435.428 82.4813 433.87 83.9573 431.051 83.9573Z" fill="white"/>
<path d="M477.442 106.302C471.046 106.302 466.618 111.058 466.618 117.485C466.618 123.922 471.036 128.668 477.442 128.668C483.838 128.668 488.266 123.912 488.266 117.485C488.266 111.048 483.849 106.302 477.442 106.302ZM477.412 125.962C472.666 125.962 469.693 122.651 469.693 117.516C469.693 112.38 472.666 109.07 477.412 109.07C482.475 109.07 485.13 112.688 485.13 117.516C485.13 122.651 482.157 125.962 477.412 125.962Z" fill="white"/>
<path d="M409.465 106.302C403.069 106.302 398.641 111.058 398.641 117.485C398.641 123.922 403.058 128.668 409.465 128.668C415.861 128.668 420.289 123.912 420.289 117.485C420.289 111.048 415.871 106.302 409.465 106.302ZM409.434 125.962C404.688 125.962 401.716 122.651 401.716 117.516C401.716 112.38 404.688 109.07 409.434 109.07C414.497 109.07 417.152 112.688 417.152 117.516C417.152 122.651 414.18 125.962 409.434 125.962Z" fill="white"/>
<path d="M348.888 106.302C342.492 106.302 338.064 111.058 338.064 117.485C338.064 123.922 342.481 128.668 348.888 128.668C355.294 128.668 359.711 123.912 359.711 117.485C359.711 111.048 355.294 106.302 348.888 106.302ZM348.857 125.962C344.111 125.962 341.139 122.651 341.139 117.516C341.139 112.38 344.111 109.07 348.857 109.07C353.92 109.07 356.575 112.688 356.575 117.516C356.575 122.651 353.603 125.962 348.857 125.962Z" fill="white"/>
<path d="M338.996 73.3076V87.801C338.996 92.7005 341.948 95.5192 347.104 95.5192C352.26 95.5192 355.212 92.7107 355.212 87.801V73.3076H352.321V87.473C352.321 91.1322 350.722 92.8542 347.104 92.8542C343.486 92.8542 341.887 91.1322 341.887 87.473V73.3076H338.996Z" fill="white"/>
<path d="M343.998 18.8906C346.089 20.1616 348.068 21.3711 348.068 23.4826C348.068 25.5121 345.997 26.4346 344.08 26.4346C341.979 26.4346 339.991 25.4916 338.996 24.6921V27.9311C339.806 28.3616 341.672 29.0586 344.111 29.0586C347.781 29.0586 351.112 26.9676 351.112 23.2571C351.112 19.6594 348.252 17.9784 345.72 16.4922C343.537 15.2109 341.641 14.0937 341.641 12.0437C341.641 9.57344 344.419 9.38895 345.269 9.38895C346.817 9.38895 348.703 9.91169 350.2 11.0187V7.8412C348.765 7.07246 347.063 6.70346 345.208 6.70346C341.21 6.70346 338.791 9.0917 338.791 12.2794C338.791 15.7439 341.559 17.4146 343.988 18.9009L343.998 18.8906Z" fill="white"/>
<path d="M497.409 45.4892C497.409 48.9537 500.177 50.6347 502.606 52.1107C504.697 53.3817 506.675 54.5809 506.675 56.7027C506.675 58.8244 504.615 59.6547 502.688 59.6547C500.587 59.6547 498.598 58.7117 497.604 57.9122V61.1409C498.414 61.5714 500.279 62.2684 502.719 62.2684C506.388 62.2684 509.719 60.1774 509.719 56.4669C509.719 52.8692 506.86 51.1882 504.328 49.702C502.145 48.4207 500.248 47.3035 500.248 45.2535C500.248 42.7833 503.026 42.5988 503.877 42.5988C505.425 42.5988 507.311 43.1215 508.807 44.2285V41.051C507.372 40.2823 505.671 39.9133 503.815 39.9133C499.818 39.9133 497.399 42.3015 497.399 45.4892H497.409Z" fill="white"/>
<path d="M376.532 18.9726H387.212V28.7306H390.103V6.84695H387.212V16.2872H376.532V6.84695H373.641V28.7306H376.532V18.9726Z" fill="white"/>
<path d="M517.684 61.9609H520.574V42.8038H526.55L527.595 40.0773H511.554V42.8038H517.684V61.9609Z" fill="white"/>
<path d="M342.902 56.2517H351.153L353.264 61.9609H356.319L347.945 40.0773H346.212L337.869 61.9609H340.79L342.902 56.2517ZM347.032 45.0895L350.179 53.6174H343.865L347.022 45.0895H347.032Z" fill="white"/>
<path d="M401.265 40.0773L392.921 61.9609H395.843L397.954 56.2619H406.205L408.317 61.9609H411.371L402.997 40.0773H401.265ZM398.938 53.6174L402.095 45.0895L405.242 53.6174H398.928H398.938Z" fill="white"/>
<path d="M359.209 40.0773V61.9609H364.232C371.755 61.9609 375.999 57.5329 375.999 50.809C375.999 43.4598 370.945 40.0773 364.098 40.0773H359.199H359.209ZM373.047 50.768C373.047 56.1389 370.084 59.2242 364.457 59.2242H362.089V42.7935H364.519C369.623 42.7935 373.047 45.6122 373.047 50.768Z" fill="white"/>
<path d="M471.549 40.0773V61.9609H476.571C484.095 61.9609 488.338 57.5329 488.338 50.809C488.338 43.4598 483.275 40.0773 476.438 40.0773H471.549ZM485.386 50.768C485.386 56.1389 482.424 59.2242 476.797 59.2242H474.429V42.7935H476.858C481.963 42.7935 485.376 45.6122 485.376 50.768H485.386Z" fill="white"/>
<path d="M555.947 40.0773H551.047V61.9609H556.07C563.593 61.9609 567.837 57.5329 567.837 50.809C567.837 43.4598 562.783 40.0773 555.936 40.0773H555.947ZM556.295 59.2344H553.927V42.8038H556.357C561.461 42.8038 564.885 45.6225 564.885 50.7782C564.885 56.1492 561.922 59.2344 556.295 59.2344Z" fill="white"/>
<path d="M414.18 61.9609H417.06V45.11L429.329 61.9609H431.922V40.0773H429.042V56.6514L417.029 40.0773H414.18V61.9609Z" fill="white"/>
<path d="M454.821 26.0041H446.713V6.85721H443.822V28.7306H454.821V26.0041Z" fill="white"/>
<path d="M363.811 29.0586C365.882 29.0586 368.065 28.4948 369.9 27.4493V24.4564C368.557 25.4198 366.097 26.3628 364.068 26.3628C359.383 26.3628 356.36 23.0316 356.36 17.8759C356.36 12.9354 359.619 9.35819 364.109 9.35819C366.507 9.35819 368.024 9.96294 369.91 11.2237V8.07695C369.039 7.5542 367.266 6.69321 364.201 6.69321C357.169 6.69321 353.315 12.3717 353.315 18.0399C353.315 24.6306 357.538 29.0586 363.822 29.0586H363.811Z" fill="white"/>
<path d="M446.621 42.5783C449.019 42.5783 450.536 43.183 452.422 44.4437V41.297C451.551 40.7743 449.778 39.9133 446.713 39.9133C439.682 39.9133 435.828 45.5917 435.828 51.26C435.828 57.8507 440.051 62.2786 446.334 62.2786C448.404 62.2786 450.587 61.7149 452.432 60.6694V57.6764C451.09 58.6399 448.63 59.5829 446.6 59.5829C441.916 59.5829 438.892 56.2517 438.892 51.096C438.892 46.1555 442.152 42.5783 446.641 42.5783H446.621Z" fill="white"/>
<path d="M379.412 40.2413L379.34 40.0773H376.255L384.783 61.7866L384.844 61.9506H386.607L395.925 40.0773H392.891L385.818 57.0922L379.412 40.2413Z" fill="white"/>
<path d="M467.5 59.2344H459.054V52.1005H466.424V49.415H459.054V42.8038H466.403L467.531 40.0773H456.163V61.9609H467.5V59.2344Z" fill="white"/>
<path d="M582.063 40.0773L576.682 50.1325L571.127 40.0773H567.929L575.216 53.1459V61.9609H578.097V53.2074L585.149 40.0773H582.063Z" fill="white"/>
<path d="M490.613 18.9726H497.86V16.2872H490.613V9.57344H497.84L498.967 6.84695H487.723V28.7306H490.613V18.9726Z" fill="white"/>
<path d="M429.093 29.0586C435.489 29.0586 439.917 24.3026 439.917 17.8656C439.917 11.4287 435.5 6.68295 429.093 6.68295C422.697 6.68295 418.269 11.4389 418.269 17.8656C418.269 24.3026 422.687 29.0586 429.093 29.0586ZM429.063 9.45044C434.126 9.45044 436.781 13.0789 436.781 17.8964C436.781 23.0316 433.808 26.3423 429.063 26.3423C424.317 26.3423 421.344 23.0316 421.344 17.8964C421.344 12.7612 424.317 9.45044 429.063 9.45044Z" fill="white"/>
<path d="M472.994 29.0586C479.4 29.0586 483.818 24.3026 483.818 17.8656C483.818 11.4287 479.4 6.68295 472.994 6.68295C466.588 6.68295 462.17 11.4389 462.17 17.8656C462.17 24.3026 466.588 29.0586 472.994 29.0586ZM472.963 9.45044C478.027 9.45044 480.681 13.0789 480.681 17.8964C480.681 23.0316 477.709 26.3423 472.963 26.3423C468.217 26.3423 465.245 23.0316 465.245 17.8964C465.245 12.7612 468.217 9.45044 472.963 9.45044Z" fill="white"/>
<path d="M404.821 29.0586C411.228 29.0586 415.645 24.3026 415.645 17.8656C415.645 11.4287 411.228 6.68295 404.821 6.68295C398.426 6.68295 393.998 11.4389 393.998 17.8656C393.998 24.3026 398.415 29.0586 404.821 29.0586ZM404.791 9.45044C409.854 9.45044 412.509 13.0789 412.509 17.8964C412.509 22.7139 409.536 26.3423 404.791 26.3423C400.035 26.3423 397.073 23.0316 397.073 17.8964C397.073 12.7612 400.045 9.45044 404.791 9.45044Z" fill="white"/>
<path d="M530.076 40.0773V54.5707C530.076 59.4702 533.028 62.2889 538.183 62.2889C543.339 62.2889 546.291 59.4804 546.291 54.5707V40.0773H543.401V54.2427C543.401 57.9019 541.802 59.6239 538.183 59.6239C534.565 59.6239 532.966 57.9019 532.966 54.2427V40.0773H530.076Z" fill="white"/>
<path d="M320.106 5.25824H318.804V130H320.106V5.25824Z" fill="white"/>
</svg>
