<?xml version="1.0" encoding="UTF-8" standalone="no"?>
<!DOCTYPE svg PUBLIC "-//W3C//DTD SVG 1.1//EN" "http://www.w3.org/Graphics/SVG/1.1/DTD/svg11.dtd">
<svg width="100%" height="100%" viewBox="0 0 302 103" version="1.1" xmlns="http://www.w3.org/2000/svg" xmlns:xlink="http://www.w3.org/1999/xlink" xml:space="preserve" xmlns:serif="http://www.serif.com/" style="fill-rule:evenodd;clip-rule:evenodd;stroke-linejoin:round;stroke-miterlimit:2;">
    <path d="M87.227,95.14C87.227,95.14 48.513,66.891 21.433,100.88L0.564,102.356C3.854,98.461 48.124,50.297 87.227,95.14Z" style="fill:rgb(51,51,51);fill-rule:nonzero;"/>
    <path d="M73.195,71.873L67.937,71.873L67.937,64.329C67.937,63.334 67.814,62.668 67.547,62.33C67.25,62.022 66.645,61.869 65.743,61.869L61.315,61.869L61.315,71.873L56.047,71.873L56.047,61.869L51.598,61.869L48.513,56.826L56.047,56.826L56.047,21.433C56.692,21.433 58.158,21.996 60.444,23.114C63.898,24.784 66.655,26.937 68.736,29.561C71.698,33.312 73.195,37.822 73.195,43.06C73.195,48.359 71.401,52.951 67.803,56.826C69.833,57.031 71.237,57.666 72.016,58.712C72.795,59.747 73.185,61.602 73.185,64.288L73.185,71.873L73.195,71.873ZM67.937,43.655C67.937,39.923 66.84,36.521 64.657,33.456C63.929,32.472 62.812,31.314 61.315,29.981L61.315,56.826C62.771,55.657 63.857,54.612 64.585,53.669C66.809,50.727 67.937,47.386 67.937,43.644" style="fill:rgb(51,51,51);fill-rule:nonzero;"/>
    <path d="M44.915,71.873L37.259,71.873L37.259,56.99L27.183,56.99L27.183,71.873L19.506,71.873L19.506,56.99L12.761,56.99L8.241,49.466L19.506,49.466L19.506,0L27.183,0L27.183,49.466L37.259,49.466L37.259,0L44.915,0L44.915,71.873Z" style="fill:rgb(51,51,51);fill-rule:nonzero;"/>
    <rect x="0" y="21.74" width="5.484" height="50.133" style="fill:rgb(51,51,51);fill-rule:nonzero;"/>
    <path d="M174.065,77.018L175.264,73.297L162.585,73.297L162.585,95.181L175.233,95.181L175.233,91.46L167.125,91.46L167.125,85.884L174.106,85.884L174.106,82.133L167.125,82.133L167.125,77.018L174.065,77.018Z" style="fill:rgb(51,51,51);fill-rule:nonzero;"/>
    <path d="M185.134,73.297L176.606,95.181L181.086,95.181L182.715,90.599L191.018,90.599L192.668,95.181L197.547,95.181L188.66,73.297L185.124,73.297L185.134,73.297ZM184.027,86.961L186.856,79.027L189.716,86.961L184.027,86.961Z" style="fill:rgb(51,51,51);fill-rule:nonzero;"/>
    <path d="M124.342,14.094L135.207,28.731L139.42,28.731L139.42,6.847L134.91,6.847L134.91,21.023L124.404,6.847L119.822,6.847L119.822,28.731L124.342,28.731L124.342,14.094Z" style="fill:rgb(51,51,51);fill-rule:nonzero;"/>
    <rect x="111.458" y="6.847" width="4.551" height="21.884" style="fill:rgb(51,51,51);fill-rule:nonzero;"/>
    <rect x="177.047" y="6.847" width="4.551" height="21.884" style="fill:rgb(51,51,51);fill-rule:nonzero;"/>
    <path d="M189.87,28.731L194.452,28.731L194.452,10.568L199.884,10.568L200.919,6.847L183.925,6.847L183.925,10.568L189.87,10.568L189.87,28.731Z" style="fill:rgb(51,51,51);fill-rule:nonzero;"/>
    <path d="M229.742,28.731L234.334,28.731L234.334,10.568L239.767,10.568L240.792,6.847L223.797,6.847L223.797,10.568L229.742,10.568L229.742,28.731Z" style="fill:rgb(51,51,51);fill-rule:nonzero;"/>
    <path d="M164.122,28.731L168.704,28.731L168.704,10.568L174.136,10.568L175.172,6.847L158.177,6.847L158.177,10.568L164.122,10.568L164.122,28.731Z" style="fill:rgb(51,51,51);fill-rule:nonzero;"/>
    <path d="M152.335,23.155C152.335,24.815 150.787,25.328 149.178,25.328C147.261,25.328 144.524,24.333 143.007,23.38L143.007,27.634C144.565,28.505 146.728,29.059 149.383,29.059C153.872,29.059 157.142,26.568 157.142,22.581C157.142,15.713 147.62,16.041 147.62,12.249C147.62,10.988 148.88,10.26 150.51,10.26C152.304,10.26 154.026,10.855 155.891,11.859L155.891,7.933C154.631,7.206 152.601,6.611 150.285,6.611C145.467,6.611 142.843,9.532 142.843,12.853C142.843,14.545 143.407,15.775 144.237,16.738C146.892,19.762 152.335,20.254 152.335,23.144L152.335,23.155Z" style="fill:rgb(51,51,51);fill-rule:nonzero;"/>
    <path d="M212.061,29.038C217.483,29.038 221.481,26.824 221.481,20.397L221.481,6.847L216.971,6.847L216.971,20.09C216.971,23.79 214.962,25.225 212.061,25.225C209.15,25.225 207.151,23.79 207.151,20.09L207.151,6.847L202.641,6.847L202.641,20.397C202.641,26.824 206.639,29.038 212.061,29.038Z" style="fill:rgb(51,51,51);fill-rule:nonzero;"/>
    <path d="M255.162,25.01L247.054,25.01L247.054,19.434L254.035,19.434L254.035,15.682L247.054,15.682L247.054,10.568L253.994,10.568L255.193,6.847L242.514,6.847L242.514,28.731L255.162,28.731L255.162,25.01Z" style="fill:rgb(51,51,51);fill-rule:nonzero;"/>
    <path d="M274.534,6.621C267.913,6.621 263.249,11.47 263.249,18.04C263.249,24.436 267.513,29.069 274.534,29.069C281.238,29.069 285.83,24.128 285.83,17.773C285.83,11.449 281.638,6.621 274.534,6.621ZM274.534,25.41C270.742,25.41 267.985,22.652 267.985,17.876C267.985,13.099 270.742,10.342 274.534,10.342C278.327,10.342 281.012,13.161 281.012,17.876C281.012,22.652 278.255,25.41 274.534,25.41Z" style="fill:rgb(51,51,51);fill-rule:nonzero;"/>
    <path d="M300.036,10.568L301.205,6.847L288.485,6.847L288.485,28.731L293.036,28.731L293.036,19.506L299.924,19.506L299.924,15.785L293.036,15.785L293.036,10.568L300.036,10.568Z" style="fill:rgb(51,51,51);fill-rule:nonzero;"/>
    <path d="M126.197,79.878C126.197,75.839 124.024,73.308 118.223,73.308L111.458,73.308L111.458,95.191L116.009,95.191L116.009,86.838L118.305,86.838L123.133,95.191L128.165,95.191L122.579,85.7C124.947,84.49 126.187,82.389 126.187,79.878L126.197,79.878ZM118.325,83.24L116.019,83.24L116.019,77.09L118.325,77.09C120.447,77.09 121.687,78.391 121.687,80.083C121.687,81.907 120.447,83.25 118.325,83.25L118.325,83.24Z" style="fill:rgb(51,51,51);fill-rule:nonzero;"/>
    <path d="M214.337,79.878C214.337,75.839 212.164,73.308 206.362,73.308L199.597,73.308L199.597,95.191L204.148,95.191L204.148,86.838L206.444,86.838L211.272,95.191L216.305,95.191L210.718,85.7C213.086,84.49 214.326,82.389 214.326,79.878L214.337,79.878ZM206.465,83.24L204.158,83.24L204.158,77.09L206.465,77.09C208.586,77.09 209.827,78.391 209.827,80.083C209.827,81.907 208.586,83.25 206.465,83.25L206.465,83.24Z" style="fill:rgb(51,51,51);fill-rule:nonzero;"/>
    <path d="M141.623,77.018L142.812,73.297L130.143,73.297L130.143,95.181L142.782,95.181L142.782,91.46L134.674,91.46L134.674,85.884L141.654,85.884L141.654,82.133L134.674,82.133L134.674,77.018L141.623,77.018Z" style="fill:rgb(51,51,51);fill-rule:nonzero;"/>
    <path d="M203.738,53.597L206.044,53.597L210.872,61.951L215.905,61.951L210.319,52.459C212.686,51.25 213.927,49.149 213.927,46.637C213.927,42.599 211.754,40.067 205.952,40.067L199.187,40.067L199.187,61.951L203.738,61.951L203.738,53.597ZM203.748,43.859L206.055,43.859C208.176,43.859 209.417,45.161 209.417,46.853C209.417,48.677 208.176,50.02 206.055,50.02L203.748,50.02L203.748,43.859Z" style="fill:rgb(51,51,51);fill-rule:nonzero;"/>
    <path d="M252.661,82.102L242.534,82.102L242.534,73.297L237.983,73.297L237.983,95.181L242.534,95.181L242.534,86.018L252.661,86.018L252.661,95.181L257.212,95.181L257.212,73.297L252.661,73.297L252.661,82.102Z" style="fill:rgb(51,51,51);fill-rule:nonzero;"/>
    <path d="M116.009,52.797L126.136,52.797L126.136,61.961L130.687,61.961L130.687,40.077L126.136,40.077L126.136,48.872L116.009,48.872L116.009,40.077L111.458,40.077L111.458,61.961L116.009,61.961L116.009,52.797Z" style="fill:rgb(51,51,51);fill-rule:nonzero;"/>
    <path d="M216.95,84.46C216.95,90.64 220.999,95.519 228.143,95.519C230.347,95.519 232.52,95.007 234.785,93.756L234.785,90.025C232.899,91.102 230.849,91.727 228.912,91.727C224.597,91.727 221.911,88.437 221.911,84.254C221.911,80.472 224.166,76.885 229.312,76.885C231.034,76.885 232.868,77.285 234.785,78.412L234.785,74.199C233.36,73.492 231.331,73.072 229.137,73.072C221.665,73.072 216.95,78.187 216.95,84.46Z" style="fill:rgb(51,51,51);fill-rule:nonzero;"/>
    <path d="M150.131,78.709C150.131,77.449 151.402,76.721 153.021,76.721C154.815,76.721 156.537,77.315 158.403,78.32L158.403,74.394C157.142,73.666 155.112,73.072 152.796,73.072C147.978,73.072 145.354,75.993 145.354,79.314C145.354,81.005 145.918,82.235 146.748,83.199C149.403,86.223 154.846,86.715 154.846,89.605C154.846,91.266 153.298,91.778 151.689,91.778C149.772,91.778 147.035,90.784 145.518,89.831L145.518,94.084C147.076,94.956 149.239,95.519 151.894,95.519C156.383,95.519 159.653,93.028 159.653,89.041C159.653,82.174 150.131,82.502 150.131,78.709Z" style="fill:rgb(51,51,51);fill-rule:nonzero;"/>
    <path d="M151.955,56.375C151.955,58.035 150.408,58.548 148.798,58.548C146.882,58.548 144.145,57.553 142.628,56.6L142.628,60.854C144.186,61.725 146.349,62.289 149.003,62.289C153.493,62.289 156.763,59.798 156.763,55.811C156.763,48.944 147.24,49.272 147.24,45.479C147.24,44.218 148.511,43.491 150.131,43.491C151.925,43.491 153.647,44.085 155.512,45.09L155.512,41.164C154.251,40.436 152.222,39.842 149.905,39.842C145.088,39.842 142.464,42.763 142.464,46.084C142.464,47.775 143.028,49.005 143.858,49.969C146.513,52.992 151.955,53.484 151.955,56.375Z" style="fill:rgb(51,51,51);fill-rule:nonzero;"/>
    <rect x="134.49" y="40.077" width="4.55" height="21.884" style="fill:rgb(51,51,51);fill-rule:nonzero;"/>
    <rect x="217.873" y="40.077" width="4.551" height="21.884" style="fill:rgb(51,51,51);fill-rule:nonzero;"/>
    <path d="M271.818,40.077L267.298,40.077L267.298,61.961L279.526,61.961L279.526,58.209L271.818,58.209L271.818,40.077Z" style="fill:rgb(51,51,51);fill-rule:nonzero;"/>
    <path d="M185.257,39.842C178.636,39.842 173.972,44.69 173.972,51.26C173.972,57.656 178.236,62.289 185.257,62.289C191.961,62.289 196.553,57.348 196.553,50.993C196.553,44.669 192.361,39.842 185.257,39.842ZM185.257,58.64C181.465,58.64 178.708,55.883 178.708,51.106C178.708,46.32 181.465,43.573 185.257,43.573C189.05,43.573 191.735,46.391 191.735,51.106C191.735,55.883 188.978,58.64 185.257,58.64Z" style="fill:rgb(51,51,51);fill-rule:nonzero;"/>
    <path d="M163.743,61.961L168.335,61.961L168.335,43.798L173.767,43.798L174.792,40.077L157.798,40.077L157.798,43.798L163.743,43.798L163.743,61.961Z" style="fill:rgb(51,51,51);fill-rule:nonzero;"/>
    <path d="M242.903,56.805C241.017,57.881 238.967,58.507 237.03,58.507C232.715,58.507 230.029,55.216 230.029,51.035C230.029,47.252 232.284,43.665 237.43,43.665C239.152,43.665 240.986,44.065 242.903,45.192L242.903,40.979C241.478,40.272 239.449,39.852 237.255,39.852C229.783,39.852 225.068,44.967 225.068,51.24C225.068,57.41 229.117,62.299 236.261,62.299C238.465,62.299 240.638,61.787 242.903,60.536L242.903,56.805Z" style="fill:rgb(51,51,51);fill-rule:nonzero;"/>
    <path d="M252.835,40.077L244.307,61.961L248.787,61.961L250.416,57.379L258.719,57.379L260.369,61.961L265.248,61.961L256.361,40.077L252.825,40.077L252.835,40.077ZM251.718,53.74L254.547,45.807L257.407,53.74L251.718,53.74Z" style="fill:rgb(51,51,51);fill-rule:nonzero;"/>
</svg>
